<?xml version="1.0" standalone="no"?>
<!DOCTYPE svg PUBLIC "-//W3C//DTD SVG 20010904//EN"
 "http://www.w3.org/TR/2001/REC-SVG-20010904/DTD/svg10.dtd">
<svg version="1.0" xmlns="http://www.w3.org/2000/svg"
 width="180.000000pt" height="180.000000pt" viewBox="0 0 120.000000 145.000000"
 preserveAspectRatio="xMidYMid meet">

<g transform="translate(0.000000,145.000000) scale(0.100000,-0.100000)"
fill="#000000" stroke="none">
<path d="M467 1243 l-287 -165 2 -330 3 -330 284 -165 c243 -141 287 -164 305
-155 11 6 140 80 286 165 l265 155 3 330 2 329 -267 154 c-148 84 -277 158
-288 165 -18 11 -52 -6 -308 -153z m202 -306 c39 -19 63 -62 69 -116 11 -116
-73 -187 -198 -166 l-40 7 0 117 c0 80 -4 121 -12 130 -10 11 -10 13 0 7 8 -5
12 0 12 13 0 19 6 21 73 21 39 0 83 -6 96 -13z m290 4 c8 -5 11 -16 8 -25 -5
-13 -11 -15 -26 -6 -27 14 -84 13 -99 -2 -26 -26 -12 -47 56 -80 78 -38 102
-70 87 -115 -14 -40 -68 -65 -124 -58 -61 9 -71 14 -71 37 0 16 4 18 18 12 36
-16 118 -16 131 0 24 29 5 63 -46 82 -96 37 -124 84 -82 138 18 23 28 26 77
26 31 0 63 -4 71 -9z"/>
<path d="M531 805 l-2 -115 59 0 c50 0 62 4 83 26 20 22 24 36 24 91 0 59 -3
67 -28 89 -22 19 -39 24 -82 24 l-53 0 -1 -115z"/>
</g>
</svg>
